<svg width="16" height="16" viewBox="0 0 16 16" fill="none" xmlns="http://www.w3.org/2000/svg">
<path d="M16 8C16 3.58192 12.4181 0 8 0C3.58192 0 0 3.58192 0 8C0 12.4181 3.58192 16 8 16C12.4181 16 16 12.4181 16 8ZM7.82115 11.5138C7.76377 11.4569 7.71816 11.3893 7.68692 11.3147C7.65569 11.2402 7.63945 11.1602 7.63913 11.0794C7.63881 10.9985 7.65441 10.9184 7.68505 10.8437C7.71569 10.7689 7.76076 10.7008 7.81769 10.6435L9.83 8.61539H4.69231C4.5291 8.61539 4.37257 8.55055 4.25717 8.43514C4.14176 8.31974 4.07692 8.16321 4.07692 8C4.07692 7.83679 4.14176 7.68026 4.25717 7.56486C4.37257 7.44945 4.5291 7.38462 4.69231 7.38462H9.83L7.81769 5.35654C7.76077 5.29911 7.71572 5.23103 7.6851 5.15619C7.65449 5.08135 7.63892 5.00122 7.63927 4.92036C7.63963 4.8395 7.65591 4.7595 7.68718 4.68494C7.71846 4.61037 7.76411 4.54269 7.82154 4.48577C7.87897 4.42885 7.94704 4.38379 8.02188 4.35318C8.09673 4.32257 8.17686 4.30699 8.25772 4.30735C8.42102 4.30807 8.57735 4.37363 8.69231 4.48962L11.7458 7.56654C11.8602 7.68181 11.9243 7.83761 11.9243 8C11.9243 8.16239 11.8602 8.31819 11.7458 8.43346L8.69231 11.5104C8.63538 11.5679 8.56766 11.6136 8.49304 11.6449C8.41843 11.6762 8.33837 11.6925 8.25745 11.6928C8.17653 11.6931 8.09635 11.6775 8.02148 11.6468C7.94662 11.6161 7.87854 11.5709 7.82115 11.5138Z" fill="#FFBB50"/>
</svg>
